<svg version="1.1" id="Layer_1" xmlns="http://www.w3.org/2000/svg" xmlns:xlink="http://www.w3.org/1999/xlink" x="0px" y="0px"
	 viewBox="0 0 430.6 513" style="enable-background:new 0 0 430.6 513;" xml:space="preserve">
<style type="text/css">
	.A{stroke:black;stroke-width:20;fill:rgba(0,0,0,0);}
	.B{stroke:black;stroke-width:20;fill:rgba(0,0,0,0);}
</style>
<g id="コイン">
	<path class="A" d="M292.4,4.8L239,0.5l-62.4-0.4h-2.2V0C132.3,0.2,89,27.7,55.5,74.5C19.7,124.5,0,189.3,0,257
		c0,146.8,92.2,256,174.8,256h0.1l71.3-3.5c2.9,0,46.5-3.9,47.8-3.9c38,0,136.6-87,136.6-248.4C430.6,87.2,333.6,4.8,292.4,4.8"/>
	<path class="B" d="M279,408.4c-28,41.8-65.5,64.8-105.6,64.8c-36.6,0-73.1-23.7-100.1-64.9c-27.2-41.7-42.3-95.8-42.3-152.2
		c0-56.9,14.8-111,41.7-152.3c27.3-41.9,64-65.9,100.6-65.9c39.9,0,77.6,23.3,106,65.8c27.3,40.7,42.4,94.7,42.4,152.3
		C321.8,313.3,306.5,367.3,279,408.4"/>
	<path class="A" d="M179,61.2c-51.1,0-112.6,87-112.6,194.9c0,125.6,73.3,191.4,112.6,191.4c68.3,0,121.9-84.1,121.9-191.4
		C300.9,148.6,246.2,61.2,179,61.2"/>
	<path class="B" d="M237.4,400.8c0,2.1-1.8,3.9-4,3.9h-84.9c-2.2,0-4-1.8-4-3.9v-289c0-2.3,1.8-4,4-4h84.9c2.2,0,4,1.7,4,4V400.8z
		"/>
	<path class="A" d="M217.7,384c0,2.3-1.7,3.5-2.9,3.5h-25.1c-1.1,0-3.1-1-3.1-3.5V130.7c0-2.2,1.5-3.5,2.8-3.5h25.4
		c1.6,0,3,1.5,3,3.5V384z"/>
</g>
</svg>