<svg version="1.1" id="Layer_1" xmlns="http://www.w3.org/2000/svg" xmlns:xlink="http://www.w3.org/1999/xlink" x="0px" y="0px"
	 viewBox="0 0 856.3 856.2" style="enable-background:new 0 0 856.3 856.2;" xml:space="preserve">
<style type="text/css">
	.A{stroke:black;stroke-width:40;fill:rgba(0,0,0,0);}
	.B{stroke:black;stroke-width:40;fill:rgba(0,0,0,0);}
	.C{stroke:black;stroke-width:40;fill:rgba(0,0,0,0);}
</style>
<g id="ハテナブロック">
	<path class="A" d="M815,0H41.2C13.5,0,0,13.4,0,41.2v773.9c0,27.7,13.5,41.2,41.2,41.2H815c27.8,0,41.3-13.5,41.3-41.2V41.2
		C856.3,13.4,842.8,0,815,0"/>
	<path class="B" d="M79.4,816.3c-21,0-38-17-38-37.9c0-21.1,16.9-38.1,38-38.1c20.9,0,37.9,17,37.9,38.1
		C117.3,799.3,100.4,816.3,79.4,816.3"/>
	<path class="B" d="M79.4,115.7c-21,0-38-17-38-38s16.9-38,38-38c20.9,0,37.9,17,37.9,38S100.4,115.7,79.4,115.7"/>
	<path class="C" d="M513.6,766.6c0,0.8-0.8,1.5-1.6,1.5H344.2c-0.8,0-1.5-0.7-1.5-1.5V658.2c0-0.9,0.7-1.7,1.5-1.7H512
		c0.8,0,1.6,0.7,1.6,1.7V766.6z"/>
	<path class="C" d="M722,403.4c0,0.4-0.2,0.7-0.4,1.1l-75.2,76.4c-0.4,0.3-0.8,0.4-1.2,0.4H532.1l-18.5,18.5v96.9
		c0,1-0.8,1.7-1.6,1.7H344.2c-0.8,0-1.5-0.7-1.5-1.7V447.9c0-0.4,0.1-0.8,0.4-1.1l75.1-76.4c0.3-0.3,0.7-0.5,1.1-0.5h113.2
		l18.6-18.6V239.7l-18.6-18.6H323.6l-18.5,18.6v113.5c0,0.8-0.7,1.5-1.5,1.5H135.8c-1,0-1.6-0.7-1.6-1.5V190.8c0-0.3,0.2-0.7,0.4-1
		l77.1-79.6c0.3-0.3,0.7-0.4,1.2-0.4h430.5c0.4,0,0.8,0.2,1.2,0.4l76.9,79.6c0.2,0.2,0.4,0.7,0.4,1V403.4z"/>
	<path class="B" d="M776.9,816.3c-20.9,0-38.2-17-38.2-37.9c0-21.1,17.2-38.1,38.2-38.1c20.9,0,38,17,38,38.1
		C814.9,799.3,797.8,816.3,776.9,816.3"/>
	<path class="B" d="M776.9,115.7c-20.9,0-38.2-17-38.2-38s17.2-38,38.2-38c20.9,0,38,17,38,38S797.8,115.7,776.9,115.7"/>
</g>
</svg>