<svg viewBox="0 0 900 600" width="900" height="600" xmlns="http://www.w3.org/2000/svg" xmlns:xlink="http://www.w3.org/1999/xlink" version="1.1"><path d="M0 241L82 241L82 115L164 115L164 277L245 277L245 259L327 259L327 85L409 85L409 109L491 109L491 193L573 193L573 79L655 79L655 163L736 163L736 205L818 205L818 265L900 265L900 217L900 0L900 0L818 0L818 0L736 0L736 0L655 0L655 0L573 0L573 0L491 0L491 0L409 0L409 0L327 0L327 0L245 0L245 0L164 0L164 0L82 0L82 0L0 0Z" fill="#353a44"></path><path d="M0 379L82 379L82 337L164 337L164 397L245 397L245 403L327 403L327 349L409 349L409 397L491 397L491 361L573 361L573 331L655 331L655 331L736 331L736 313L818 313L818 379L900 379L900 307L900 215L900 263L818 263L818 203L736 203L736 161L655 161L655 77L573 77L573 191L491 191L491 107L409 107L409 83L327 83L327 257L245 257L245 275L164 275L164 113L82 113L82 239L0 239Z" fill="#2f333c"></path><path d="M0 439L82 439L82 397L164 397L164 457L245 457L245 469L327 469L327 439L409 439L409 451L491 451L491 421L573 421L573 373L655 373L655 427L736 427L736 349L818 349L818 457L900 457L900 379L900 305L900 377L818 377L818 311L736 311L736 329L655 329L655 329L573 329L573 359L491 359L491 395L409 395L409 347L327 347L327 401L245 401L245 395L164 395L164 335L82 335L82 377L0 377Z" fill="#292d34"></path><path d="M0 535L82 535L82 505L164 505L164 547L245 547L245 535L327 535L327 499L409 499L409 547L491 547L491 481L573 481L573 481L655 481L655 517L736 517L736 469L818 469L818 529L900 529L900 547L900 377L900 455L818 455L818 347L736 347L736 425L655 425L655 371L573 371L573 419L491 419L491 449L409 449L409 437L327 437L327 467L245 467L245 455L164 455L164 395L82 395L82 437L0 437Z" fill="#23262c"></path><path d="M0 601L82 601L82 601L164 601L164 601L245 601L245 601L327 601L327 601L409 601L409 601L491 601L491 601L573 601L573 601L655 601L655 601L736 601L736 601L818 601L818 601L900 601L900 601L900 545L900 527L818 527L818 467L736 467L736 515L655 515L655 479L573 479L573 479L491 479L491 545L409 545L409 497L327 497L327 533L245 533L245 545L164 545L164 503L82 503L82 533L0 533Z" fill="#1d2025"></path></svg>